PathFileType	4	(X/Y/Z)	s01c0403.trc
DataRate	CameraRate	NumFrames	NumMarkers	Units	OrigDataRate	OrigDataStartFrame	OrigNumFrames
200	200	5	47	mm	200	750	2000
Frame#	Time	racr			lacr			c7			jug			rlel			rdr			llel			ldr			lic			ric			lasi			rasi			rpsi			lpsi			rgt			lgt			rth1			rth2			rth3			rth4			rlfc			rsh1			rsh2			rsh3			rsh4			rlmal			rmmal			rcal			rtoe			rmt5			lth1			lth2			lth4			lth3			llfc			lsh1			lsh2			lsh3			lsh4			llmal			lmmal			lcal			ltoe			lmt5			SBIKE			LBIKE			RBIKE			
		X1	Y1	Z1	X2	Y2	Z2	X3	Y3	Z3	X4	Y4	Z4	X5	Y5	Z5	X6	Y6	Z6	X7	Y7	Z7	X8	Y8	Z8	X9	Y9	Z9	X10	Y10	Z10	X11	Y11	Z11	X12	Y12	Z12	X13	Y13	Z13	X14	Y14	Z14	X15	Y15	Z15	X16	Y16	Z16	X17	Y17	Z17	X18	Y18	Z18	X19	Y19	Z19	X20	Y20	Z20	X21	Y21	Z21	X22	Y22	Z22	X23	Y23	Z23	X24	Y24	Z24	X25	Y25	Z25	X26	Y26	Z26	X27	Y27	Z27	X28	Y28	Z28	X29	Y29	Z29	X30	Y30	Z30	X31	Y31	Z31	X32	Y32	Z32	X33	Y33	Z33	X34	Y34	Z34	X35	Y35	Z35	X36	Y36	Z36	X37	Y37	Z37	X38	Y38	Z38	X39	Y39	Z39	X40	Y40	Z40	X41	Y41	Z41	X42	Y42	Z42	X43	Y43	Z43	X44	Y44	Z44	X45	Y45	Z45	X46	Y46	Z46	X47	Y47	Z47	
750	3.7500	715.678040	1342.231567	-60.386349	763.527466	1294.423828	-432.552155	732.559265	1422.785889	-249.460190	719.368958	1259.654053	-237.170135	569.036011	1091.568237	35.333508	705.317688	897.877075	-43.202789	578.647766	1081.453857	-548.156250	703.257568	897.731506	-449.625336	374.923187	1210.157349	-435.627380	346.100494	1247.128052	-115.784348	360.644684	1159.664551	-413.429871	371.030334	1197.232178	-144.324249	226.439117	1283.413818	-230.613510	232.149872	1274.214355	-336.686890	291.704315	1152.227905	-74.855125	267.184692	1082.319092	-450.067413	387.987976	1068.751587	-55.946503	462.998566	1031.514404	-55.467381	540.204529	984.903320	-64.259193	490.221069	1077.302734	-78.157349	605.780945	895.535034	-86.729218	525.780090	822.466919	-61.573429	465.702087	761.829529	-64.767456	396.941803	706.387939	-77.455925	498.978699	728.065430	-101.325485	287.323090	624.497131	-99.878052	330.002411	614.416992	-177.346878	232.192673	621.368774	-156.925003	438.393005	445.191528	-133.141769	335.558441	485.983582	-68.024017	260.414124	961.469238	-456.922791	286.130157	875.289978	-456.549561	337.989532	889.376587	-459.514923	301.358215	793.255859	-438.923981	320.725250	669.646851	-421.342560	241.748474	592.724670	-453.415985	206.512192	514.069702	-445.590607	169.891632	437.290771	-431.686066	259.587921	493.190613	-421.340912	121.471359	321.085876	-415.215454	102.835251	241.036758	-296.844482	73.555023	323.936035	-373.161255	272.058502	130.356934	-376.454193	177.433197	179.029831	-443.192841	-225.510162	892.830322	-254.800842	-13.394191	84.833939	-457.947815	-23.129704	81.083572	-57.954071	
751	3.7550	715.847046	1340.074829	-58.927956	764.448120	1293.547974	-430.181183	733.412109	1421.091919	-247.291641	718.993042	1258.112915	-235.732834	567.313538	1090.252930	35.563557	704.971741	897.929871	-43.297745	579.940613	1081.680542	-547.192200	703.435730	897.578247	-449.545319	375.187439	1211.851318	-434.409943	345.483459	1249.078125	-114.634605	360.497070	1161.408447	-412.537750	370.930481	1198.591919	-143.094910	226.861954	1285.612061	-230.312424	232.224915	1276.589844	-336.400848	291.576447	1154.599609	-74.955795	267.737366	1083.895142	-449.734650	386.956451	1069.237671	-56.265049	461.757904	1031.219849	-56.463329	538.243591	983.855713	-64.945694	489.410248	1076.878662	-78.360474	604.522949	893.728638	-87.978340	525.544861	819.458191	-62.664852	466.221588	757.950500	-65.045654	397.981720	701.748352	-77.413223	499.662659	724.447205	-101.837868	289.046570	617.049255	-98.755928	331.560577	608.543030	-176.853561	233.086243	611.626038	-155.482361	446.785858	444.709717	-132.496140	342.024902	480.144653	-67.209183	262.956818	962.569458	-456.171539	289.603851	876.815796	-455.201080	341.365479	891.590698	-457.903351	305.967072	795.022583	-437.282837	324.723785	671.138489	-420.172272	243.702774	596.311768	-452.490265	206.255142	518.715027	-444.575134	167.470093	442.996552	-430.670715	258.724945	496.382477	-420.250519	115.944977	327.911407	-414.595459	94.703728	242.458847	-289.796783	67.699738	330.875854	-372.143219	263.244293	134.252563	-376.614380	169.514648	184.966278	-442.805969	-225.449982	892.892334	-254.480530	-13.365315	84.928078	-457.944489	-23.123329	81.096428	-57.921181	
752	3.7600	715.850037	1338.105347	-56.856579	765.288269	1292.454224	-427.883698	734.213318	1419.453491	-245.207321	718.440308	1256.413574	-234.405182	565.582703	1088.870605	35.982948	704.588013	898.030151	-43.375347	580.996460	1081.683105	-545.879028	703.502258	897.472473	-449.608826	375.222290	1213.824951	-433.261383	345.046631	1250.849609	-113.569603	360.314453	1163.216187	-411.690002	370.533478	1199.143433	-142.935974	227.346115	1287.633911	-229.892670	232.043243	1278.695679	-335.797119	291.575409	1156.656494	-75.026611	268.124969	1085.378540	-449.292419	385.990051	1069.260254	-56.715519	460.335724	1030.255859	-57.283916	534.252014	981.945923	-64.837799	488.527679	1075.771484	-78.651054	603.253662	891.063171	-89.484589	524.373840	815.292664	-63.584625	465.742065	752.984802	-65.340652	398.128143	696.083496	-77.198151	499.472198	719.878113	-102.189804	290.425140	608.707825	-97.735207	332.744995	601.796021	-176.404526	234.084290	600.845703	-154.357010	454.489319	443.668152	-131.935562	348.352417	473.946808	-66.172005	265.662262	963.592346	-455.415894	293.635315	878.306335	-453.794708	345.251556	893.905457	-456.041046	311.551758	797.204102	-436.134399	329.420197	672.791748	-419.042206	246.031815	600.112549	-451.161438	206.722580	523.584961	-443.506195	165.801239	449.093262	-429.615112	258.585907	499.883148	-419.102142	110.944160	335.273560	-414.039703	99.084099	263.364349	-297.226074	62.353241	338.450439	-371.144897	254.678543	138.529175	-376.824463	161.994644	191.195526	-442.275146	-225.367432	892.979614	-254.100281	-13.353099	84.973709	-457.928528	-23.102646	81.093109	-57.879055	
753	3.7650	715.919189	1335.824951	-55.548969	766.024780	1291.308472	-425.621185	734.936096	1417.840088	-243.279572	717.857361	1254.744995	-233.115891	563.251831	1087.385986	36.266674	704.258362	898.185181	-43.443417	581.631714	1081.906982	-544.898254	703.650024	897.036194	-449.830170	375.079376	1216.060913	-432.284302	344.750977	1252.486328	-112.605911	360.109680	1165.098022	-410.985138	370.687073	1200.277710	-141.558365	227.886429	1289.448975	-229.341553	231.705063	1280.623901	-334.854919	291.617462	1158.301636	-75.064499	268.412354	1086.963013	-448.758484	385.169891	1068.593262	-57.217663	458.877106	1028.699829	-58.055561	532.496216	979.263733	-65.816109	487.780609	1073.855469	-79.105042	601.352295	887.331909	-91.028809	522.370728	810.149475	-64.316719	464.525696	747.307129	-65.510872	397.526031	689.411560	-77.092987	498.698090	713.993958	-102.553810	291.521332	599.497681	-96.768967	333.690277	594.155334	-176.048538	234.638107	589.452209	-153.068741	461.783508	442.134674	-131.481003	354.588867	467.075043	-65.223969	268.517242	964.376770	-454.626221	298.129120	879.753540	-452.377655	349.527832	896.312988	-454.076843	318.338684	799.394653	-435.009155	334.820526	674.693359	-417.978638	249.160522	604.105530	-449.863007	207.658997	528.666260	-442.036041	164.872528	455.442932	-428.687317	259.052368	503.592163	-418.075531	106.221703	342.436554	-412.889679	104.108017	284.847656	-305.032135	57.653412	346.540833	-370.374664	246.416504	143.083054	-376.863007	154.738876	197.674652	-441.909973	-225.286743	893.062866	-253.771683	-13.324874	85.148628	-457.910706	-23.076408	81.114998	-57.831322	
754	3.7700	716.081604	1333.093750	-55.043621	766.636230	1290.100342	-423.505554	735.568726	1416.298096	-241.492859	717.172180	1253.082031	-231.957809	562.333984	1085.940063	36.588161	703.860229	898.239502	-43.454464	581.966125	1082.065796	-544.131165	703.666748	896.884644	-450.017426	374.765625	1218.216431	-431.465332	344.719513	1253.930664	-111.844170	359.829590	1166.969116	-410.406708	370.877075	1201.053955	-140.374573	228.477768	1291.026611	-228.646393	231.490448	1282.276733	-333.781952	291.730927	1159.342407	-75.133659	268.592346	1088.505371	-448.189056	384.689270	1067.378296	-58.247219	457.408630	1026.402710	-58.792294	530.687378	976.034119	-66.930115	486.945770	1071.242065	-79.559395	598.568542	882.571533	-92.533592	519.701843	804.231262	-64.879379	462.724396	740.609741	-65.808739	396.423340	681.746277	-76.957764	497.225525	707.613525	-102.732071	292.493927	589.487976	-95.956383	334.515778	585.642822	-175.827820	235.460266	577.601318	-151.629517	468.496887	439.723114	-130.859665	360.420624	459.694611	-64.293831	271.492157	964.953064	-453.790131	302.981293	881.154541	-450.982788	354.033264	898.802002	-452.147186	325.107697	801.121094	-433.396698	340.521637	676.493713	-416.600708	253.110321	608.231995	-448.791809	209.476318	533.970215	-441.087341	164.672470	461.958710	-427.901886	260.233307	507.499756	-417.007599	102.611397	350.824219	-412.627136	109.993279	306.633789	-313.323151	53.616680	355.094940	-369.687653	238.446808	147.822021	-376.942657	147.984650	204.705902	-441.567261	-225.180420	893.154968	-253.435471	-13.321889	85.323669	-457.839844	-23.060904	81.123161	-57.771324	
